<svg width="35" height="35" viewBox="0 0 35 35" fill="none" xmlns="http://www.w3.org/2000/svg">
<mask id="mask0_8_66" style="mask-type:luminance" maskUnits="userSpaceOnUse" x="0" y="0" width="35" height="35">
<path d="M34.7 0.200012H0.100006V34.8H34.7V0.200012Z" fill="white"/>
</mask>
<g mask="url(#mask0_8_66)">
<path fill-rule="evenodd" clip-rule="evenodd" d="M6.6 26.1H3.3C1.5 26.2 0.2 27.8 0.3 29.6C0.4 31.2 1.7 32.5 3.3 32.6H6.6C8.4 35 11.7 35.5 14.1 33.7C14.5 33.4 14.9 33 15.2 32.6H31.4C33.2 32.6 34.6 31.1 34.6 29.4C34.6 27.6 33.1 26.2 31.4 26.2H15.2C13.4 23.8 10.1 23.3 7.7 25.1C7.3 25.4 6.9 25.8 6.6 26.2M3.4 30.5C2.8 30.5 2.3 30 2.3 29.4C2.3 28.8 2.8 28.3 3.4 28.3H5.7C5.6 29 5.6 29.7 5.7 30.5H3.4ZM31.5 28.3C32.1 28.3 32.6 28.8 32.6 29.4C32.6 30 32.1 30.5 31.5 30.5H16.3C16.4 29.8 16.4 29.1 16.3 28.3H31.5ZM11.8 26.3H12C12.3 26.5 12.6 26.6 12.8 26.8C13.1 27 13.3 27.2 13.5 27.5C13.7 27.8 13.9 28.1 14 28.4C14.4 29.4 14.2 30.6 13.5 31.4C13.3 31.7 13.1 31.9 12.8 32.1C12.6 32.3 12.3 32.4 12 32.5C12 32.5 11.9 32.5 11.8 32.5C11.2 32.7 10.6 32.7 10 32.5C10 32.5 9.9 32.5 9.8 32.5C9.5 32.5 9.2 32.3 9 32.1C8.7 31.9 8.5 31.7 8.3 31.4C8.1 31.1 7.9 30.8 7.8 30.5C7.5 29.8 7.5 29 7.8 28.3C7.9 28 8.1 27.7 8.3 27.4C8.5 27.1 8.7 26.9 9 26.7C9.2 26.5 9.5 26.4 9.8 26.3H10C10.6 26.1 11.2 26.1 11.8 26.3Z" fill="#313F68"/>
<path d="M6.6 26.1H3.3C1.5 26.2 0.2 27.8 0.3 29.6C0.4 31.2 1.7 32.5 3.3 32.6H6.6C8.4 35 11.7 35.5 14.1 33.7C14.5 33.4 14.9 33 15.2 32.6H31.4C33.2 32.6 34.6 31.1 34.6 29.4C34.6 27.6 33.1 26.2 31.4 26.2H15.2C13.4 23.8 10.1 23.3 7.7 25.1C7.3 25.4 6.9 25.8 6.6 26.2M3.4 30.5C2.8 30.5 2.3 30 2.3 29.4C2.3 28.8 2.8 28.3 3.4 28.3H5.7C5.6 29 5.6 29.7 5.7 30.5H3.4ZM31.5 28.3C32.1 28.3 32.6 28.8 32.6 29.4C32.6 30 32.1 30.5 31.5 30.5H16.3C16.4 29.8 16.4 29.1 16.3 28.3H31.5ZM11.8 26.3H12C12.3 26.5 12.6 26.6 12.8 26.8C13.1 27 13.3 27.2 13.5 27.5C13.7 27.8 13.9 28.1 14 28.4C14.4 29.4 14.2 30.6 13.5 31.4C13.3 31.7 13.1 31.9 12.8 32.1C12.6 32.3 12.3 32.4 12 32.5C12 32.5 11.9 32.5 11.8 32.5C11.2 32.7 10.6 32.7 10 32.5C10 32.5 9.9 32.5 9.8 32.5C9.5 32.5 9.2 32.3 9 32.1C8.7 31.9 8.5 31.7 8.3 31.4C8.1 31.1 7.9 30.8 7.8 30.5C7.5 29.8 7.5 29 7.8 28.3C7.9 28 8.1 27.7 8.3 27.4C8.5 27.1 8.7 26.9 9 26.7C9.2 26.5 9.5 26.4 9.8 26.3H10C10.6 26.1 11.2 26.1 11.8 26.3Z" stroke="#224798" stroke-width="0.4"/>
<path fill-rule="evenodd" clip-rule="evenodd" d="M6.60001 2.4H3.30001C1.50001 2.4 0.100006 3.9 0.100006 5.7C0.100006 7.4 1.50001 8.8 3.30001 8.9H6.60001C8.40001 11.3 11.7 11.8 14.1 10C14.5 9.7 14.9 9.3 15.2 8.9H31.4C33.2 8.9 34.7 7.5 34.7 5.7C34.7 3.9 33.3 2.4 31.5 2.4C31.5 2.4 31.5 2.4 31.4 2.4H15.2C13.5 2.6226e-06 10.1 -0.499997 7.70001 1.3C7.30001 1.6 6.90001 2 6.60001 2.4ZM3.40001 6.7C2.80001 6.7 2.30001 6.2 2.30001 5.6C2.30001 5 2.80001 4.5 3.40001 4.5H5.70001C5.60001 5.2 5.60001 5.9 5.70001 6.7H3.40001ZM31.5 4.5C32.1 4.5 32.6 5 32.6 5.6C32.6 6.2 32.1 6.7 31.5 6.7H16.3C16.4 6 16.4 5.3 16.3 4.5H31.5ZM11.8 2.5H12C12.3 2.6 12.5 2.8 12.8 3C13.1 3.2 13.3 3.4 13.5 3.7C13.7 4 13.9 4.3 14 4.6C14.1 4.9 14.2 5.3 14.2 5.7C14.2 6.1 14.2 6.4 14 6.8C13.9 7.1 13.7 7.4 13.5 7.7C13.3 8 13.1 8.2 12.8 8.4C12.6 8.6 12.3 8.7 12 8.8C12 8.8 11.9 8.8 11.8 8.8C11.2 9 10.6 9 10 8.8C10 8.8 9.90001 8.8 9.80001 8.8C9.50001 8.8 9.20001 8.6 9.00001 8.4C8.70001 8.2 8.50001 8 8.30001 7.7C8.10001 7.4 7.90001 7.1 7.80001 6.8C7.70001 6.5 7.60001 6.1 7.60001 5.7C7.60001 5.3 7.60001 5 7.80001 4.6C7.90001 4.3 8.10001 4 8.30001 3.7C8.50001 3.4 8.70001 3.2 9.00001 3C9.20001 2.8 9.50001 2.7 9.80001 2.6H10C10.6 2.4 11.2 2.4 11.8 2.6" fill="#313F68"/>
<path d="M11.8 2.5H12C12.3 2.6 12.5 2.8 12.8 3C13.1 3.2 13.3 3.4 13.5 3.7C13.7 4 13.9 4.3 14 4.6C14.1 4.9 14.2 5.3 14.2 5.7C14.2 6.1 14.2 6.4 14 6.8C13.9 7.1 13.7 7.4 13.5 7.7C13.3 8 13.1 8.2 12.8 8.4C12.6 8.6 12.3 8.7 12 8.8C12 8.8 11.9 8.8 11.8 8.8C11.2 9 10.6 9 10 8.8C10 8.8 9.90001 8.8 9.80001 8.8C9.50001 8.8 9.20001 8.6 9.00001 8.4C8.70001 8.2 8.50001 8 8.30001 7.7C8.10001 7.4 7.90001 7.1 7.80001 6.8C7.70001 6.5 7.60001 6.1 7.60001 5.7C7.60001 5.3 7.60001 5 7.80001 4.6C7.90001 4.3 8.10001 4 8.30001 3.7C8.50001 3.4 8.70001 3.2 9.00001 3C9.20001 2.8 9.50001 2.7 9.80001 2.6H10C10.6 2.4 11.2 2.4 11.8 2.6M6.60001 2.4H3.30001C1.50001 2.4 0.100006 3.9 0.100006 5.7C0.100006 7.4 1.50001 8.8 3.30001 8.9H6.60001C8.40001 11.3 11.7 11.8 14.1 10C14.5 9.7 14.9 9.3 15.2 8.9H31.4C33.2 8.9 34.7 7.5 34.7 5.7C34.7 3.9 33.3 2.4 31.5 2.4C31.5 2.4 31.5 2.4 31.4 2.4H15.2C13.5 2.6226e-06 10.1 -0.499997 7.70001 1.3C7.30001 1.6 6.90001 2 6.60001 2.4ZM3.40001 6.7C2.80001 6.7 2.30001 6.2 2.30001 5.6C2.30001 5 2.80001 4.5 3.40001 4.5H5.70001C5.60001 5.2 5.60001 5.9 5.70001 6.7H3.40001ZM31.5 4.5C32.1 4.5 32.6 5 32.6 5.6C32.6 6.2 32.1 6.7 31.5 6.7H16.3C16.4 6 16.4 5.3 16.3 4.5H31.5Z" stroke="#224798" stroke-width="0.4"/>
<path fill-rule="evenodd" clip-rule="evenodd" d="M19.6 14.2H3.40001C1.60001 14.3 0.300006 15.9 0.400006 17.7C0.500006 19.3 1.80001 20.6 3.40001 20.7H19.6C21.4 23.1 24.7 23.6 27.1 21.8C27.5 21.5 27.9 21.1 28.2 20.7H31.5C33.3 20.7 34.7 19.2 34.7 17.5C34.7 15.7 33.2 14.3 31.5 14.3H28.2C26.4 11.9 23.1 11.4 20.7 13.2C20.3 13.5 19.9 13.9 19.6 14.3M3.40001 18.6C2.80001 18.6 2.30001 18.1 2.30001 17.5C2.30001 16.9 2.80001 16.4 3.40001 16.4H18.6C18.5 17.1 18.5 17.8 18.6 18.6H3.40001ZM31.5 16.4C32.1 16.4 32.6 16.9 32.6 17.5C32.6 18.1 32.1 18.6 31.5 18.6H29.2C29.3 17.9 29.3 17.2 29.2 16.4H31.5ZM24.8 14.4H25C25.3 14.6 25.6 14.7 25.8 14.9C26.1 15.1 26.3 15.3 26.5 15.6C26.7 15.9 26.9 16.2 27 16.5C27.4 17.5 27.2 18.7 26.5 19.5C26.3 19.8 26.1 20 25.8 20.2C25.6 20.4 25.3 20.5 25 20.6C25 20.6 24.9 20.6 24.8 20.6C24.2 20.8 23.6 20.8 23 20.6C23 20.6 22.9 20.6 22.8 20.6C22.5 20.6 22.2 20.4 22 20.2C21.7 20 21.5 19.8 21.3 19.5C21.1 19.2 20.9 18.9 20.8 18.6C20.5 17.9 20.5 17.1 20.8 16.4C20.9 16.1 21.1 15.8 21.3 15.5C21.5 15.2 21.7 15 22 14.8C22.2 14.6 22.5 14.5 22.8 14.4H23C23.6 14.2 24.2 14.2 24.8 14.4Z" fill="#313F68"/>
<path d="M19.6 14.2H3.40001C1.60001 14.3 0.300006 15.9 0.400006 17.7C0.500006 19.3 1.80001 20.6 3.40001 20.7H19.6C21.4 23.1 24.7 23.6 27.1 21.8C27.5 21.5 27.9 21.1 28.2 20.7H31.5C33.3 20.7 34.7 19.2 34.7 17.5C34.7 15.7 33.2 14.3 31.5 14.3H28.2C26.4 11.9 23.1 11.4 20.7 13.2C20.3 13.5 19.9 13.9 19.6 14.3M3.40001 18.6C2.80001 18.6 2.30001 18.1 2.30001 17.5C2.30001 16.9 2.80001 16.4 3.40001 16.4H18.6C18.5 17.1 18.5 17.8 18.6 18.6H3.40001ZM31.5 16.4C32.1 16.4 32.6 16.9 32.6 17.5C32.6 18.1 32.1 18.6 31.5 18.6H29.2C29.3 17.9 29.3 17.2 29.2 16.4H31.5ZM24.8 14.4H25C25.3 14.6 25.6 14.7 25.8 14.9C26.1 15.1 26.3 15.3 26.5 15.6C26.7 15.9 26.9 16.2 27 16.5C27.4 17.5 27.2 18.7 26.5 19.5C26.3 19.8 26.1 20 25.8 20.2C25.6 20.4 25.3 20.5 25 20.6C25 20.6 24.9 20.6 24.8 20.6C24.2 20.8 23.6 20.8 23 20.6C23 20.6 22.9 20.6 22.8 20.6C22.5 20.6 22.2 20.4 22 20.2C21.7 20 21.5 19.8 21.3 19.5C21.1 19.2 20.9 18.9 20.8 18.6C20.5 17.9 20.5 17.1 20.8 16.4C20.9 16.1 21.1 15.8 21.3 15.5C21.5 15.2 21.7 15 22 14.8C22.2 14.6 22.5 14.5 22.8 14.4H23C23.6 14.2 24.2 14.2 24.8 14.4Z" stroke="#224798" stroke-width="0.4"/>
</g>
</svg>
