<svg width="38" height="38" viewBox="0 0 38 38" fill="none" xmlns="http://www.w3.org/2000/svg">
<g clip-path="url(#clip0_83_127)">
<path d="M27.6621 16.8378L20.9804 11.3588V14.9669H12.5615C11.4925 14.9669 10.6907 15.7687 10.6907 16.8378V24.054H14.6997V18.8423H20.9804V22.4504L27.6621 16.9714V16.8378Z" fill="#313F68"/>
<path d="M18.7086 37.4173C17.9068 37.4173 17.105 37.1501 16.4369 36.4819L0.935411 20.9804C-0.267289 19.7777 -0.267289 17.7732 0.935411 16.4369L16.4369 0.935433C17.105 0.267267 17.7732 0 18.7086 0C19.6441 0 20.3122 0.267267 20.9804 0.935433L36.4819 16.4369C37.6846 17.6396 37.6846 19.6441 36.4819 20.9804L20.9804 36.4819C20.3122 37.1501 19.5104 37.4173 18.7086 37.4173ZM2.80628 18.7087L18.7086 34.611L34.611 18.7087L18.7086 2.8063L2.80628 18.7087Z" fill="#313F68"/>
</g>
<defs>
<clipPath id="clip0_83_127">
<rect width="37.4173" height="37.4173" fill="white"/>
</clipPath>
</defs>
</svg>
